<svg width="41" height="22" viewBox="0 0 41 22" fill="none" xmlns="http://www.w3.org/2000/svg">
<path d="M2 9.63723C1.24736 9.63723 0.63723 10.2474 0.63723 11C0.63723 11.7526 1.24736 12.3628 2 12.3628V9.63723ZM39.7332 11.9636C40.2654 11.4314 40.2654 10.5686 39.7332 10.0364L31.0606 1.36376C30.5284 0.831564 29.6655 0.831564 29.1333 1.36376C28.6011 1.89595 28.6011 2.75881 29.1333 3.29101L36.8423 11L29.1333 18.709C28.6011 19.2412 28.6011 20.104 29.1333 20.6362C29.6655 21.1684 30.5284 21.1684 31.0606 20.6362L39.7332 11.9636ZM2 12.3628L38.7696 12.3628V9.63723L2 9.63723V12.3628Z" fill="#F7F7F7"/>
</svg>
