<svg width="21" height="21" viewBox="0 0 21 21" fill="none" xmlns="http://www.w3.org/2000/svg">
<circle cx="10.2649" cy="10.2649" r="10.2649" fill="#2D2D2D"/>
<path d="M9.17529 12.7804V12.6827C9.18215 12.0445 9.24562 11.5368 9.3657 11.1594C9.48921 10.782 9.66418 10.4767 9.89061 10.2434C10.117 10.0101 10.3898 9.79737 10.7089 9.60524C10.9147 9.47487 11.1 9.32907 11.2646 9.16782C11.4293 9.00657 11.5597 8.82131 11.6557 8.61203C11.7518 8.40276 11.7998 8.17118 11.7998 7.9173C11.7998 7.61196 11.7278 7.34779 11.5837 7.12479C11.4396 6.90179 11.2475 6.73025 11.0073 6.61017C10.7706 6.48667 10.5064 6.42491 10.2148 6.42491C9.95065 6.42491 9.69849 6.4798 9.45833 6.58959C9.21818 6.69937 9.01919 6.87091 8.86138 7.10421C8.70356 7.33407 8.61264 7.63083 8.58863 7.99449H7.02419C7.04821 7.37695 7.20431 6.85547 7.49249 6.43006C7.78068 6.00121 8.1615 5.677 8.63494 5.45743C9.11182 5.23786 9.63845 5.12808 10.2148 5.12808C10.8461 5.12808 11.3984 5.24644 11.8719 5.48316C12.3453 5.71646 12.7124 6.04409 12.9732 6.46608C13.2373 6.88464 13.3694 7.37352 13.3694 7.93274C13.3694 8.31699 13.3094 8.66349 13.1893 8.97226C13.0692 9.2776 12.8977 9.55035 12.6747 9.79051C12.4551 10.0307 12.1909 10.2434 11.8822 10.4286C11.5906 10.6105 11.3538 10.7992 11.172 10.9947C10.9936 11.1903 10.8632 11.4218 10.7809 11.6894C10.6986 11.957 10.654 12.2881 10.6471 12.6827V12.7804H9.17529ZM9.95236 15.9093C9.67104 15.9093 9.42917 15.8098 9.22675 15.6108C9.02434 15.4084 8.92313 15.1648 8.92313 14.8801C8.92313 14.5987 9.02434 14.3586 9.22675 14.1596C9.42917 13.9572 9.67104 13.856 9.95236 13.856C10.2303 13.856 10.4704 13.9572 10.6728 14.1596C10.8787 14.3586 10.9816 14.5987 10.9816 14.8801C10.9816 15.0688 10.9336 15.242 10.8375 15.3998C10.7449 15.5542 10.6214 15.6777 10.467 15.7704C10.3126 15.863 10.1411 15.9093 9.95236 15.9093Z" fill="white"/>
</svg>
