<svg width="95" height="97" viewBox="0 0 95 97" fill="none" xmlns="http://www.w3.org/2000/svg">
<path d="M55.7709 0C34.1235 0 16.5867 17.5454 16.5867 39.183C16.5755 46.3113 18.5185 53.3063 22.2045 59.4076L3.20688 78.4052L3.27301 78.4713C1.24528 80.4121 2.3458e-07 83.1672 2.3458e-07 86.281C-0.00122423 92.2968 4.79135 97.0012 10.801 97C13.8708 96.9988 16.616 95.7706 18.5752 93.7723L18.623 93.8201L38.2243 74.2175C43.669 76.9513 49.6783 78.3721 55.7709 78.366C77.4195 78.366 94.9527 60.8231 94.9527 39.183C94.9527 17.5454 77.4183 0 55.7709 0ZM56.0084 62.9585C42.4781 62.9585 31.5178 51.9946 31.5178 38.4691C31.5178 24.9461 42.4781 13.9798 56.0084 13.9798C69.5388 13.9798 80.4966 24.9449 80.4966 38.4691C80.4978 51.9946 69.5388 62.9585 56.0084 62.9585Z" fill="white"/>
</svg>
