<svg width="96" height="97" viewBox="0 0 96 97" fill="none" xmlns="http://www.w3.org/2000/svg">
<path d="M54.8382 89.4784V55.4187H10.2847C8.93434 55.4181 7.59706 55.6864 6.34928 56.2083C5.10151 56.7302 3.96769 57.4955 3.01261 58.4604C2.05752 59.4253 1.29988 60.571 0.782968 61.832C0.266056 63.0929 -1.33491e-07 64.4445 0 65.8094V70.0599C0 72.7026 0.822778 75.2807 2.33578 77.4337C9.38425 87.4317 20.9214 92.3798 36.5542 92.3798C43.4564 92.3798 49.5679 91.4189 54.8382 89.4784ZM36.5542 0C39.5556 -4.52046e-08 42.5276 0.597517 45.3004 1.75844C48.0733 2.91936 50.5929 4.62095 52.7151 6.76605C54.8374 8.91115 56.5209 11.4578 57.6695 14.2605C58.818 17.0632 59.4092 20.0671 59.4092 23.1007C59.4092 26.1344 58.818 29.1383 57.6695 31.941C56.5209 34.7437 54.8374 37.2903 52.7151 39.4354C50.5929 41.5805 48.0733 43.2821 45.3004 44.443C42.5276 45.604 39.5556 46.2015 36.5542 46.2015C30.4927 46.2015 24.6795 43.7677 20.3933 39.4354C16.1072 35.1032 13.6993 29.2274 13.6993 23.1007C13.6993 16.974 16.1072 11.0983 20.3933 6.76605C24.6795 2.43382 30.4927 0 36.5542 0ZM88.0008 36.9381C92.4163 36.9381 96 40.5603 96 45.0233V88.9147C96 91.0591 95.1572 93.1156 93.6571 94.6319C92.1569 96.1482 90.1223 97 88.0008 97H67.4084C65.2869 97 63.2523 96.1482 61.7521 94.6319C60.252 93.1156 59.4092 91.0591 59.4092 88.9147V45.0233C59.4092 40.5603 62.9929 36.9381 67.4084 36.9381H88.0008ZM78.8496 78.5056H76.5641L76.0979 78.5379C75.2374 78.6576 74.4539 79.1029 73.9058 79.7839C73.3577 80.465 73.0857 81.331 73.1449 82.2068C73.2041 83.0827 73.5901 83.9033 74.2247 84.5026C74.8594 85.102 75.6955 85.4355 76.5641 85.4358H78.8496L79.3113 85.4034C80.1714 85.2838 80.9546 84.8388 81.5027 84.1583C82.0508 83.4777 82.3231 82.6123 82.2645 81.7368C82.2059 80.8612 81.8208 80.0408 81.187 79.441C80.5532 78.8413 79.7178 78.507 78.8496 78.5056Z" fill="white"/>
</svg>
