<svg width="133" height="97" viewBox="0 0 133 97" fill="none" xmlns="http://www.w3.org/2000/svg">
<path d="M12.0909 0H96.7273V24.25H114.864L133 48.5V78.8125H120.909C120.909 83.6361 118.998 88.2622 115.597 91.673C112.196 95.0838 107.583 97 102.773 97C97.9627 97 93.3496 95.0838 89.9484 91.673C86.5471 88.2622 84.6364 83.6361 84.6364 78.8125H48.3636C48.3636 83.6361 46.4528 88.2622 43.0516 91.673C39.6504 95.0838 35.0373 97 30.2273 97C25.4172 97 20.8042 95.0838 17.4029 91.673C14.0017 88.2622 12.0909 83.6361 12.0909 78.8125H0V12.125C0 8.90925 1.27386 5.82521 3.54135 3.55133C5.80883 1.27745 8.8842 0 12.0909 0ZM96.7273 33.3438V48.5H123.75L111.841 33.3438H96.7273ZM30.2273 69.7188C27.8222 69.7188 25.5157 70.6768 23.8151 72.3822C22.1145 74.0877 21.1591 76.4007 21.1591 78.8125C21.1591 81.2243 22.1145 83.5373 23.8151 85.2427C25.5157 86.9482 27.8222 87.9062 30.2273 87.9062C32.6323 87.9062 34.9388 86.9482 36.6394 85.2427C38.3401 83.5373 39.2955 81.2243 39.2955 78.8125C39.2955 76.4007 38.3401 74.0877 36.6394 72.3822C34.9388 70.6768 32.6323 69.7188 30.2273 69.7188ZM102.773 69.7188C100.368 69.7188 98.0612 70.6768 96.3606 72.3822C94.6599 74.0877 93.7045 76.4007 93.7045 78.8125C93.7045 81.2243 94.6599 83.5373 96.3606 85.2427C98.0612 86.9482 100.368 87.9062 102.773 87.9062C105.178 87.9062 107.484 86.9482 109.185 85.2427C110.886 83.5373 111.841 81.2243 111.841 78.8125C111.841 76.4007 110.886 74.0877 109.185 72.3822C107.484 70.6768 105.178 69.7188 102.773 69.7188ZM42.3182 60.625L78.5909 24.25L70.0668 15.6412L42.3182 43.4681L29.6832 30.7975L21.1591 39.4062L42.3182 60.625Z" fill="white"/>
</svg>
