<svg width="83" height="97" viewBox="0 0 83 97" fill="none" xmlns="http://www.w3.org/2000/svg">
<path d="M29.2266 34.5482C29.2266 31.3765 30.4865 28.3348 32.7292 26.092C34.972 23.8493 38.0137 22.5894 41.1854 22.5894C44.3571 22.5894 47.3989 23.8493 49.6416 26.092C51.8844 28.3348 53.1443 31.3765 53.1443 34.5482C53.1443 37.7199 51.8844 40.7617 49.6416 43.0044C47.3989 45.2472 44.3571 46.5071 41.1854 46.5071C38.0137 46.5071 34.972 45.2472 32.7292 43.0044C30.4865 40.7617 29.2266 37.7199 29.2266 34.5482Z" fill="white"/>
<path fill-rule="evenodd" clip-rule="evenodd" d="M40.3247 0C32.1161 0.000321986 24.2077 3.08759 18.1699 8.64881C12.1322 14.21 8.40653 21.8385 7.73282 30.0194C6.98092 39.1382 9.79718 48.1929 15.5885 55.2766L34.6961 78.6415C35.4828 79.6024 36.473 80.3766 37.5953 80.9083C38.7176 81.4399 39.9439 81.7157 41.1858 81.7157C42.4276 81.7157 43.654 81.4399 44.7762 80.9083C45.8985 80.3766 46.8888 79.6024 47.6755 78.6415L66.7831 55.2766C72.5749 48.1932 75.3912 39.1383 74.6387 30.0194C73.965 21.8385 70.2394 14.21 64.2016 8.64881C58.1638 3.08759 50.2555 0.000321986 42.0468 0H40.3247ZM41.1858 14.6164C35.8996 14.6164 30.83 16.7163 27.0921 20.4542C23.3542 24.1921 21.2543 29.2617 21.2543 34.5479C21.2543 39.834 23.3542 44.9036 27.0921 48.6415C30.83 52.3794 35.8996 54.4793 41.1858 54.4793C46.4719 54.4793 51.5416 52.3794 55.2794 48.6415C59.0173 44.9036 61.1172 39.834 61.1172 34.5479C61.1172 29.2617 59.0173 24.1921 55.2794 20.4542C51.5416 16.7163 46.4719 14.6164 41.1858 14.6164Z" fill="white"/>
<path d="M16.3915 68.1922C17.336 68.6645 18.0545 69.4922 18.3893 70.4936C18.7241 71.4951 18.6479 72.5885 18.1774 73.5338L10.4333 89.0272H71.9445L64.1951 73.5338C63.9565 73.065 63.813 72.5535 63.7729 72.0289C63.7329 71.5044 63.7971 70.9771 63.9618 70.4774C64.1265 69.9778 64.3885 69.5157 64.7327 69.1178C65.0769 68.7199 65.4964 68.394 65.9671 68.159C66.4378 67.924 66.9503 67.7845 67.4752 67.7486C68 67.7126 68.5268 67.7809 69.0252 67.9495C69.5235 68.1181 69.9836 68.3837 70.3788 68.7309C70.774 69.0782 71.0966 69.5002 71.3279 69.9727L81.958 91.233C82.2614 91.8407 82.4045 92.5159 82.3737 93.1945C82.3428 93.873 82.1391 94.5325 81.7818 95.1102C81.4245 95.6879 80.9256 96.1648 80.3322 96.4955C79.7389 96.8262 79.0709 96.9998 78.3916 96.9998H3.98084C3.30202 96.9989 2.63468 96.8246 2.04207 96.4935C1.44946 96.1624 0.951219 95.6855 0.594559 95.1079C0.237899 94.5304 0.0346409 93.8713 0.00405028 93.1931C-0.0265403 92.515 0.11655 91.8403 0.419758 91.233L11.0499 69.9727C11.5221 69.0283 12.3498 68.3098 13.3513 67.975C14.3528 67.6401 15.4462 67.7217 16.3915 68.1922Z" fill="white"/>
</svg>
