<svg width="40" height="23" viewBox="0 0 40 23" fill="none" xmlns="http://www.w3.org/2000/svg">
<path d="M5.02488 10.056V17.6151C5.02488 18.7197 5.92031 19.6151 7.02488 19.6151H10.5591M25.1493 6.0311H33.9378C34.7148 6.0311 35.4215 6.48118 35.7501 7.18533L38.5456 13.1757C38.6692 13.4405 38.7333 13.7292 38.7333 14.0215V17.6151C38.7333 18.7197 37.8378 19.6151 36.7333 19.6151H33.1991M25.1493 6.0311V19.6151M25.1493 6.0311V3C25.1493 1.89543 24.2539 1 23.1493 1H1M25.1493 19.6151H16.0933M25.1493 19.6151H27.6648M3.01244 6.0311H10.056" stroke="#2D2D2D" stroke-width="1.68" stroke-linecap="round" stroke-linejoin="round"/>
<path d="M15.1483 21.4148C14.6711 21.892 14.0239 22.1601 13.349 22.1601C12.6742 22.1601 12.027 21.892 11.5498 21.4148C11.0726 20.9376 10.8045 20.2904 10.8045 19.6155C10.8045 18.9407 11.0726 18.2934 11.5498 17.8162C12.027 17.339 12.6742 17.071 13.349 17.071C14.0239 17.071 14.6711 17.339 15.1483 17.8162C15.6255 18.2934 15.8936 18.9407 15.8936 19.6155C15.8936 20.2904 15.6255 20.9376 15.1483 21.4148ZM32.0711 21.4148C31.5939 21.892 30.9467 22.1601 30.2718 22.1601C29.597 22.1601 28.9498 21.892 28.4726 21.4148C27.9954 20.9376 27.7273 20.2904 27.7273 19.6155C27.7273 18.9407 27.9954 18.2934 28.4726 17.8162C28.9498 17.339 29.597 17.071 30.2718 17.071C30.9467 17.071 31.5939 17.339 32.0711 17.8162C32.5483 18.2934 32.8164 18.9407 32.8164 19.6155C32.8164 20.2904 32.5483 20.9376 32.0711 21.4148Z" stroke="#2D2D2D" stroke-width="1.68" stroke-miterlimit="1.5" stroke-linecap="round" stroke-linejoin="round"/>
</svg>
