<svg width="23" height="19" viewBox="0 0 23 19" fill="none" xmlns="http://www.w3.org/2000/svg">
<path d="M21.357 4.83496V1.58329C21.357 1.16337 21.1839 0.760657 20.8758 0.463734C20.5678 0.16681 20.1499 0 19.7142 0H1.64285C1.20714 0 0.789273 0.16681 0.481179 0.463734C0.173085 0.760657 0 1.16337 0 1.58329V14.2496C0 14.6695 0.173085 15.0722 0.481179 15.3691C0.789273 15.666 1.20714 15.8329 1.64285 15.8329H13.1428V18.2078C13.1427 18.3428 13.1784 18.4756 13.2466 18.5935C13.3147 18.7115 13.4131 18.8107 13.5322 18.8817C13.6514 18.9527 13.7874 18.9931 13.9273 18.9992C14.0673 19.0053 14.2065 18.9767 14.3318 18.9163L17.2499 17.5092L20.168 18.9163C20.2933 18.9767 20.4325 19.0053 20.5725 18.9992C20.7124 18.9931 20.8484 18.9527 20.9676 18.8817C21.0867 18.8107 21.1851 18.7115 21.2532 18.5935C21.3214 18.4756 21.3571 18.3428 21.357 18.2078V12.5812C22.41 11.5475 23 10.1567 23 8.70807C23 7.25945 22.41 5.8687 21.357 4.83496ZM10.6785 10.2914H4.92854C4.71069 10.2914 4.50176 10.208 4.34771 10.0595C4.19366 9.91103 4.10712 9.70967 4.10712 9.49972C4.10712 9.28976 4.19366 9.0884 4.34771 8.93994C4.50176 8.79148 4.71069 8.70807 4.92854 8.70807H10.6785C10.8964 8.70807 11.1053 8.79148 11.2593 8.93994C11.4134 9.0884 11.4999 9.28976 11.4999 9.49972C11.4999 9.70967 11.4134 9.91103 11.2593 10.0595C11.1053 10.208 10.8964 10.2914 10.6785 10.2914ZM10.6785 7.12479H4.92854C4.71069 7.12479 4.50176 7.04138 4.34771 6.89292C4.19366 6.74446 4.10712 6.5431 4.10712 6.33314C4.10712 6.12319 4.19366 5.92183 4.34771 5.77337C4.50176 5.62491 4.71069 5.5415 4.92854 5.5415H10.6785C10.8964 5.5415 11.1053 5.62491 11.2593 5.77337C11.4134 5.92183 11.4999 6.12319 11.4999 6.33314C11.4999 6.5431 11.4134 6.74446 11.2593 6.89292C11.1053 7.04138 10.8964 7.12479 10.6785 7.12479ZM19.7142 16.9273L17.6175 15.916C17.5034 15.8609 17.3775 15.8323 17.2499 15.8323C17.1223 15.8323 16.9964 15.8609 16.8823 15.916L14.7856 16.9273V13.7142C15.5557 14.0667 16.3974 14.2496 17.2499 14.2496C18.1024 14.2496 18.9442 14.0667 19.7142 13.7142V16.9273ZM17.2499 12.6663C16.4376 12.6663 15.6435 12.4341 14.9681 11.9992C14.2927 11.5643 13.7663 10.9461 13.4554 10.2228C13.1446 9.49955 13.0632 8.70368 13.2217 7.93586C13.3802 7.16805 13.7713 6.46276 14.3457 5.90919C14.9201 5.35563 15.6519 4.97864 16.4486 4.82591C17.2453 4.67319 18.0712 4.75157 18.8216 5.05116C19.5721 5.35075 20.2136 5.85808 20.6649 6.50901C21.1161 7.15993 21.357 7.92521 21.357 8.70807C21.357 9.75786 20.9243 10.7646 20.1541 11.507C19.3838 12.2493 18.3392 12.6663 17.2499 12.6663Z" fill="#2D2D2D"/>
</svg>
