<svg width="24" height="22" viewBox="0 0 24 22" fill="none" xmlns="http://www.w3.org/2000/svg">
<path d="M1.2906 5.04796H12.9654H11.889H12.2904H1.2906ZM1.78103 3.72234H18.8428L17.1263 1.60665C17.0428 1.52093 16.9473 1.45288 16.8398 1.40251C16.7322 1.35125 16.6203 1.32562 16.5042 1.32562H4.1196C4.0043 1.32562 3.89245 1.35125 3.78404 1.40251C3.67735 1.45288 3.58271 1.52093 3.50011 1.60665L1.78103 3.72234ZM7.7436 11.8802L10.3248 10.5546L12.906 11.8802V5.04796H7.7436V11.8802ZM12.9447 21.2099H2.08561C1.51258 21.2099 1.02216 21 0.614325 20.5803C0.204775 20.1614 0 19.6576 0 19.0691V4.62244C0 4.37234 0.0400085 4.13108 0.120026 3.89865C0.200903 3.66711 0.32136 3.45501 0.481394 3.26235L2.49215 0.783442C2.67886 0.53069 2.91245 0.337149 3.19294 0.20282C3.47343 0.0676065 3.77544 0 4.09895 0H16.5016C16.8251 0 17.1301 0.0676065 17.4166 0.20282C17.7032 0.337149 17.9419 0.530248 18.1329 0.782116L20.1682 3.31405C20.3282 3.51289 20.4487 3.72985 20.5296 3.96493C20.6096 4.20089 20.6496 4.44525 20.6496 4.698V9.69029C20.4724 9.63726 20.2844 9.60059 20.0856 9.58026C19.8877 9.55993 19.695 9.54977 19.5074 9.54977H19.359V5.04796H14.1966V11.8776C13.9565 12.0472 13.7182 12.2752 13.4816 12.5616C13.245 12.8479 13.0729 13.1281 12.9654 13.402L10.3248 12.0578L6.453 14.0463V5.04796H1.2906V19.0691C1.2906 19.3068 1.36502 19.5021 1.51387 19.655C1.66272 19.8079 1.85287 19.8843 2.08432 19.8843H12.2904C12.3678 20.1318 12.4642 20.3633 12.5795 20.5789C12.6948 20.7937 12.8169 21.004 12.946 21.2099M18.8376 22V18.0231H14.9658V16.6975H18.8376V12.7207H20.1282V16.6975H24V18.0231H20.1282V22H18.8376Z" fill="#2D2D2D"/>
</svg>
